<?xml version="1.0" encoding="UTF-8"?>
<svg id="Layer_1" xmlns="http://www.w3.org/2000/svg" version="1.1" viewBox="0 0 66.7 95.3">
  <!-- Generator: Adobe Illustrator 29.1.0, SVG Export Plug-In . SVG Version: 2.1.0 Build 142)  -->
  <defs>
    <style>
      .st0 {
        fill: #666;
      }
    </style>
  </defs>
  <path class="st0" d="M30.9,22.1c-7.9-.2-17.7,0-23.4,6.5s-4.3,8.6-4.8,13.4c-.5,5.7-.6,11.4-.3,17.1.4,8.6,1.5,18.2,6.8,25.3s6,6,10.1,7,10.5.2,15.2-1.8c8.3-3.5,15.3-9.9,19.5-17.8,4.9-9,5.8-19.5,3.8-29.4-2-9.9-6.7-19.1-13.1-26.9s-3.2-3.6-4.9-5.3-3.7-3.4-6.1-4.2c-4.8-1.6-8.2,2.2-9.6,6.4s-1.2,5-1.8,7.5-1.2,5.6-1.8,8.5c-1.2,5.7-2.4,11.5-3.6,17.2-2.3,11.5-4.5,23-6.6,34.5-.5,2.8-1,5.7-1.5,8.5s.2,1.9,1.1,2.3,2,.1,2.4-.8c7.7-18,14.2-36.5,24-53.6s6.6-10.9,10.1-16.2-2-4-3.4-2c-6,8.7-11.9,17.4-17.4,26.4s-8.9,15.6-12.9,23.6-5.6,11.5-8.3,17.3,1.4,4,3.1,2.4c13.5-13,23.2-29.5,37.1-42s8-6.5,12.6-9h-2c.8.5.4,1.8.2,2.5-.4,1.5-1.2,2.7-2,4-2,3.4-4,6.8-6.2,10.2-4.2,6.7-8.7,13.3-13.3,19.8s-5.4,7.3-8.1,10.8l3.3,1.9c2-6.2,4-12.4,6-18.6s3.7-10.3,1.9-15.3-2.6-4.4-5-5.4-5.3-1.4-8.1-1.7-6.3-1.2-9.4-1.2-2.6.2-3.8.5c-2.5.5-5.1,1-7.6,1.5s-1.4,4.2,1,3.8,4.5-.9,6.7-1.3,1.2-.2,1.8-.3.5,0,.8-.1c-.5,0,.2,0,.4,0,.9,0,1.8,0,2.6,0s.4,0,0,0c.1,0,.2,0,.4,0,.3,0,.6,0,.9.1.9.1,1.7.3,2.6.4,2.5.4,5,.5,7.5,1.1s4.1,1.2,5.2,3.2c2.1,3.9,0,9.1-1.3,12.8-2.1,6.5-4.2,13-6.3,19.6s2,3.5,3.3,1.9c5.4-6.9,10.7-14.1,15.6-21.4s9.7-14.6,13.9-22.3,2.7-7.6-.8-9.8-1.4-.3-2,0c-16.8,9.2-27.6,25.5-39.6,39.8s-7,8.1-10.9,11.8l3.1,2.4c4.5-9.5,9-19.1,14-28.4s8.9-15.6,13.8-23.1,7.1-10.6,10.7-15.9l-3.4-2c-5.8,8.7-11.3,17.7-16,27.1-4,8.2-7.4,16.6-10.9,25.1s-4.8,11.7-7.3,17.6l3.6,1.5c3.7-21.3,7.8-42.5,12.4-63.6s1.1-5.2,1.7-7.7.8-4,1.5-5.8,1.6-2.9,3.2-2.9,4,1.9,5.4,3.3c6.5,6.1,11.6,13.6,14.7,21.9,3.4,9,4.7,19.1,1.9,28.4-2.3,7.7-7.3,14.6-13.9,19.2s-16.4,8.3-23.8,3.1c-5.9-4.1-8-12.2-8.9-18.9-.7-5.1-.9-10.2-.8-15.3s0-9.8,1.3-14.4,3.3-6.8,6.8-8.6,7.2-2.1,10.9-2.3,3.8,0,5.7,0,2.5-3.8,0-3.9h0Z"/>
  <path class="st0" d="M8.8,29.9c-.9-6.4,3.6-12.3,8.9-15.2,6.1-3.2,13.8-3.6,20.5-2.9s6.7,1.3,9.6,3.2,4.3,4,5.7,6.5c3.6,6.3,4.2,13.8,3.7,21s-2.5,17.6-5,26.1,3,3.4,3.8,1c2.5-8.4,4.3-17,5.1-25.7s.2-16.6-3.8-23.9-4-5.8-6.8-7.9-6.8-3.5-10.6-4c-7.6-1-16.1-.4-23.1,2.8S3.8,22.4,5.1,30.9s1.5,1.6,2.4,1.4,1.5-1.4,1.4-2.4h0Z"/>
</svg>